# xmcd
#
# Track frame offsets:
#	150
#	14761
#	35549
#	50486
#	67304
#	82039
#	96477
#	109413
#	122113
#	135620
#	152416
#	161962
#	175933
#	189328
#	204910
#
# Disc length: 3042 seconds
#
# Revision: 1
# Processed by: cddbd v1.5.2PL0 Copyright (c) Steve Scherf et al.
# Submitted via: audiograbber 1.83.01
#
DISCID=db0be00f
DTITLE=Purple Sex Heads - Live at tube templates
DYEAR=2010
DGENRE=Blues
TTITLE0=that's entertainment
TTITLE1=rock the casbah
TTITLE2=kein geld für bier
TTITLE3=down in the park
TTITLE4=our lips are sealed
TTITLE5=sex change hop
TTITLE6=on any other day
TTITLE7=pinball wizard
TTITLE8=bohemian rapsody
TTITLE9=mexican radio
TTITLE10=blitzkrieg bop
TTITLE11=cant' get you out of my head
TTITLE12=boys don't cry
TTITLE13=sex and drugs and rock and roll
TTITLE14=da leg' ich mich doch lieber hin
EXTD=
EXTT0=
EXTT1=
EXTT2=
EXTT3=
EXTT4=
EXTT5=
EXTT6=
EXTT7=
EXTT8=
EXTT9=
EXTT10=
EXTT11=
EXTT12=
EXTT13=
EXTT14=
PLAYORDER=
